<svg width="30" height="30" viewBox="0 0 30 30" fill="none" xmlns="http://www.w3.org/2000/svg">
<path fill-rule="evenodd" clip-rule="evenodd" d="M15 0C6.71573 0 0 6.71573 0 15C0 23.2843 6.71573 30 15 30C23.2843 30 30 23.2843 30 15C30 6.71573 23.2843 0 15 0ZM11.703 7.04833C12.5564 7.0095 12.829 7 15.0017 7H14.9992C17.1726 7 17.4443 7.0095 18.2976 7.04833C19.1493 7.08733 19.7309 7.22217 20.2409 7.42C20.7676 7.62417 21.2126 7.89751 21.6576 8.34251C22.1026 8.78719 22.376 9.23352 22.581 9.7597C22.7776 10.2684 22.9126 10.8497 22.9526 11.7014C22.991 12.5547 23.001 12.8274 23.001 15.0001C23.001 17.1728 22.991 17.4448 22.9526 18.2981C22.9126 19.1495 22.7776 19.731 22.581 20.2398C22.376 20.7658 22.1026 21.2121 21.6576 21.6568C21.2131 22.1018 20.7675 22.3758 20.2414 22.5802C19.7324 22.778 19.1504 22.9128 18.2988 22.9518C17.4454 22.9907 17.1736 23.0002 15.0007 23.0002C12.8282 23.0002 12.5557 22.9907 11.7024 22.9518C10.8509 22.9128 10.2693 22.778 9.76034 22.5802C9.2345 22.3758 8.78816 22.1018 8.34366 21.6568C7.89882 21.2121 7.62548 20.7658 7.42098 20.2396C7.22331 19.731 7.08848 19.1496 7.04931 18.298C7.01064 17.4446 7.00098 17.1728 7.00098 15.0001C7.00098 12.8274 7.01098 12.5546 7.04914 11.7012C7.08748 10.8499 7.22248 10.2684 7.42081 9.75953C7.62582 9.23352 7.89915 8.78719 8.34416 8.34251C8.78883 7.89768 9.23517 7.62434 9.76134 7.42C10.27 7.22217 10.8513 7.08733 11.703 7.04833Z" fill="#141024"/>
<path fill-rule="evenodd" clip-rule="evenodd" d="M14.2841 8.44219C14.4234 8.44197 14.5733 8.44203 14.7351 8.44211L15.0018 8.44219C17.1378 8.44219 17.391 8.44985 18.2345 8.48819C19.0145 8.52385 19.4378 8.65419 19.7198 8.76369C20.0931 8.90869 20.3593 9.08203 20.6392 9.36203C20.9192 9.64203 21.0925 9.9087 21.2378 10.282C21.3473 10.5637 21.4778 10.987 21.5133 11.7671C21.5517 12.6104 21.56 12.8637 21.56 14.9988C21.56 17.1338 21.5517 17.3871 21.5133 18.2305C21.4777 19.0105 21.3473 19.4338 21.2378 19.7155C21.0928 20.0888 20.9192 20.3546 20.6392 20.6345C20.3592 20.9145 20.0933 21.0878 19.7198 21.2328C19.4381 21.3428 19.0145 21.4728 18.2345 21.5085C17.3911 21.5468 17.1378 21.5552 15.0018 21.5552C12.8656 21.5552 12.6124 21.5468 11.7691 21.5085C10.9891 21.4725 10.5657 21.3422 10.2835 21.2327C9.91021 21.0877 9.64354 20.9143 9.36354 20.6343C9.08353 20.3543 8.9102 20.0883 8.76486 19.7148C8.65536 19.4331 8.52486 19.0098 8.48936 18.2298C8.45103 17.3864 8.44336 17.1331 8.44336 14.9968C8.44336 12.8604 8.45103 12.6084 8.48936 11.7651C8.52503 10.985 8.65536 10.5617 8.76486 10.2797C8.90986 9.90637 9.08353 9.6397 9.36354 9.3597C9.64354 9.07969 9.91021 8.90636 10.2835 8.76102C10.5655 8.65102 10.9891 8.52102 11.7691 8.48519C12.5071 8.45185 12.7931 8.44185 14.2841 8.44019V8.44219ZM19.2715 9.7706C18.7415 9.7706 18.3115 10.2001 18.3115 10.7303C18.3115 11.2603 18.7415 11.6903 19.2715 11.6903C19.8015 11.6903 20.2315 11.2603 20.2315 10.7303C20.2315 10.2003 19.8015 9.77026 19.2715 9.77026V9.7706ZM10.8955 15.0005C10.8955 12.7317 12.7349 10.8922 15.0037 10.8921C17.2726 10.8921 19.1116 12.7316 19.1116 15.0005C19.1116 17.2693 17.2727 19.108 15.0039 19.108C12.735 19.108 10.8955 17.2693 10.8955 15.0005Z" fill="#141024"/>
<path fill-rule="evenodd" clip-rule="evenodd" d="M15.0007 12.3337C16.4734 12.3337 17.6674 13.5276 17.6674 15.0004C17.6674 16.4731 16.4734 17.6671 15.0007 17.6671C13.5278 17.6671 12.334 16.4731 12.334 15.0004C12.334 13.5276 13.5278 12.3337 15.0007 12.3337V12.3337Z" fill="#141024"/>
</svg>
