<?xml version="1.0" encoding="utf-8"?><svg viewBox="0 0 502.66 502.66" xmlns="http://www.w3.org/2000/svg" xmlns:xlink="http://www.w3.org/1999/xlink"><style>:root>svg{display:none}:root>svg:target{display:block}</style><svg viewBox="0 0 30 30" id="facebook-ico" xmlns="http://www.w3.org/2000/svg"><path fill-rule="evenodd" clip-rule="evenodd" d="M15 0C6.716 0 0 6.716 0 15c0 8.284 6.716 15 15 15 8.284 0 15-6.716 15-15 0-8.284-6.716-15-15-15zm1.564 15.659v8.16h-3.377v-8.16H11.5v-2.812h1.687v-1.688c0-2.295.953-3.659 3.659-3.659h2.253v2.813H17.69c-1.053 0-1.123.393-1.123 1.126l-.003 1.408h2.55l-.298 2.812h-2.252z"/></svg><svg viewBox="0 0 502.664 502.664" id="icon" xmlns="http://www.w3.org/2000/svg"><path d="M153.821 358.226L0 274.337v-46.463l153.821-83.414v54.574L46.636 250.523l107.185 53.431v54.272zm26.273 29.358L282.103 115.08h32.227L212.084 387.584h-31.99zm168.749-29.358v-54.272l107.164-52.999-107.164-52.59v-53.927l153.821 83.522v46.183l-153.821 84.083z"/></svg><svg viewBox="0 0 30 30" id="inst-ico" xmlns="http://www.w3.org/2000/svg"><path fill-rule="evenodd" clip-rule="evenodd" d="M15 0C6.716 0 0 6.716 0 15c0 8.284 6.716 15 15 15 8.284 0 15-6.716 15-15 0-8.284-6.716-15-15-15zm-3.297 7.048C12.556 7.01 12.829 7 15.002 7h-.003c2.174 0 2.445.01 3.299.048.851.04 1.433.174 1.943.372a3.91 3.91 0 011.417.923c.445.444.718.89.923 1.417.197.508.332 1.09.372 1.941.038.854.048 1.126.048 3.3 0 2.172-.01 2.444-.048 3.297-.04.852-.175 1.433-.372 1.942a3.928 3.928 0 01-.923 1.417c-.445.445-.89.719-1.417.923-.509.198-1.09.333-1.942.372-.854.039-1.125.048-3.298.048s-2.445-.01-3.299-.048c-.851-.04-1.433-.174-1.942-.372a3.918 3.918 0 01-1.416-.923 3.92 3.92 0 01-.923-1.417c-.198-.509-.333-1.09-.372-1.942-.038-.853-.048-1.125-.048-3.298s.01-2.445.048-3.299c.038-.851.173-1.433.372-1.941a3.92 3.92 0 01.923-1.417 3.918 3.918 0 011.417-.923c.509-.198 1.09-.333 1.942-.372z"/><path fill-rule="evenodd" clip-rule="evenodd" d="M14.284 8.442h.718c2.136 0 2.389.008 3.232.046.78.036 1.204.166 1.486.276.373.145.64.318.92.598.28.28.453.547.598.92.11.282.24.705.275 1.485.039.843.047 1.097.047 3.232 0 2.135-.008 2.388-.047 3.231-.035.78-.166 1.204-.275 1.485-.145.374-.319.64-.599.92-.28.28-.546.453-.92.598-.28.11-.704.24-1.485.276-.843.038-1.096.046-3.232.046s-2.39-.008-3.233-.046c-.78-.037-1.203-.167-1.486-.276a2.478 2.478 0 01-.92-.599 2.48 2.48 0 01-.598-.92c-.11-.28-.24-.704-.276-1.484-.038-.844-.046-1.097-.046-3.233 0-2.137.008-2.389.046-3.232.036-.78.166-1.203.276-1.485.145-.374.319-.64.599-.92.28-.28.546-.454.92-.599.281-.11.705-.24 1.485-.276.738-.033 1.024-.043 2.515-.045v.002zm4.987 1.329a.96.96 0 100 1.92.96.96 0 000-1.92zM10.896 15a4.109 4.109 0 118.218 0 4.109 4.109 0 01-8.217 0z"/><path fill-rule="evenodd" clip-rule="evenodd" d="M15 12.334a2.667 2.667 0 110 5.333 2.667 2.667 0 010-5.333z"/></svg><svg viewBox="0 0 3 13" id="tooltip-icon" xmlns="http://www.w3.org/2000/svg"><path d="M1.549 1.87c-.594 0-.89-.28-.89-.84 0-.55.296-.824.89-.824.593 0 .89.275.89.824 0 .56-.297.84-.89.84zm0 10.214c-.448 0-.672-.246-.672-.74v-6.87c0-.482.224-.723.672-.723.459 0 .689.24.689.722v6.872c0 .492-.23.739-.69.739z"/></svg></svg>